<svg xmlns="http://www.w3.org/2000/svg" viewBox="0 0 512 512">
<path fill="#1e3a5f" d="M224 96a32 32 0 1 0 64 0 32 32 0 1 0 -64 0zm-99.4-73.9C137.9 8 156.4 0 176 0h32c53 0 96 43 96 96v12.5c23.7 18.7 54.7 32.2 88.5 38.6c17.5 3.3 31.9 14.5 38.8 30.9l26.7 63.3c10.4 24.6 7.6 52.8-7.5 74.6l-20.7 30c-15.3 22.2-40.4 35.1-67.4 35.1H325.2l-30 40c-11.2 15-29.2 24-48 24H160c-17.7 0-32-14.3-32-32v-33c0-14.3-9.5-26.6-23.4-30.6l-50.5-14.4C22.6 325.9 0 297.2 0 264V128h32c25.1 0 49-11 65.4-30.2l27.2-75.7zM110.1 274.6l50.5 14.4c22.5 6.4 39.4 26.6 39.4 50.6v12.4h47.2l12.8-17.1V288c0-17.7 14.3-32 32-32h56.8c10.8 0 20.8-5.2 26.9-14l20.7-30c3-4.4 4.1-10 2-14.9L371.8 133.7c-26.9-8.4-50.6-22-70.1-39.7-14.9 7.9-40.6 18-68.6 18-5.2 0-10.4-.5-15.4-1.4l-4.5-9L205 84.1c-13.6-27.1-41.5-44.1-71.8-44.1H128c0 14.4-5.7 28-15.5 38.4L85.4 107.1c-29.7 31.3-70.4 42.2-85.4 45v111.9c0 10.4 6 19.4 14.8 23.3 8.8 3.9 18.9 2.5 26.4-3.6l68.9-56.1z"/>
</svg>
